<svg id="visual" viewBox="0 0 900 600" width="900" height="600" xmlns="http://www.w3.org/2000/svg" xmlns:xlink="http://www.w3.org/1999/xlink" version="1.1"><path d="M0 145L50 127L100 163L150 151L200 151L250 133L300 169L350 115L400 121L450 169L500 151L550 157L600 145L650 127L700 145L750 133L800 181L850 133L900 151L900 0L850 0L800 0L750 0L700 0L650 0L600 0L550 0L500 0L450 0L400 0L350 0L300 0L250 0L200 0L150 0L100 0L50 0L0 0Z" fill="#fe8f0e"></path><path d="M0 217L50 187L100 241L150 235L200 217L250 205L300 229L350 193L400 205L450 235L500 217L550 235L600 217L650 217L700 211L750 217L800 241L850 211L900 211L900 149L850 131L800 179L750 131L700 143L650 125L600 143L550 155L500 149L450 167L400 119L350 113L300 167L250 131L200 149L150 149L100 161L50 125L0 143Z" fill="#ffa544"></path><path d="M0 379L50 373L100 397L150 385L200 361L250 391L300 391L350 373L400 397L450 373L500 391L550 385L600 379L650 397L700 385L750 373L800 397L850 379L900 391L900 209L850 209L800 239L750 215L700 209L650 215L600 215L550 233L500 215L450 233L400 203L350 191L300 227L250 203L200 215L150 233L100 239L50 185L0 215Z" fill="#ffba6c"></path><path d="M0 481L50 475L100 475L150 487L200 475L250 487L300 493L350 487L400 487L450 487L500 475L550 481L600 493L650 493L700 469L750 481L800 493L850 475L900 475L900 389L850 377L800 395L750 371L700 383L650 395L600 377L550 383L500 389L450 371L400 395L350 371L300 389L250 389L200 359L150 383L100 395L50 371L0 377Z" fill="#ffce94"></path><path d="M0 529L50 541L100 535L150 547L200 535L250 547L300 541L350 553L400 535L450 535L500 541L550 547L600 547L650 541L700 535L750 541L800 547L850 541L900 535L900 473L850 473L800 491L750 479L700 467L650 491L600 491L550 479L500 473L450 485L400 485L350 485L300 491L250 485L200 473L150 485L100 473L50 473L0 479Z" fill="#ffe1bd"></path><path d="M0 601L50 601L100 601L150 601L200 601L250 601L300 601L350 601L400 601L450 601L500 601L550 601L600 601L650 601L700 601L750 601L800 601L850 601L900 601L900 533L850 539L800 545L750 539L700 533L650 539L600 545L550 545L500 539L450 533L400 533L350 551L300 539L250 545L200 533L150 545L100 533L50 539L0 527Z" fill="#fff4e7"></path></svg>